<mxfile host="app.diagrams.net" modified="2023-02-28T09:50:38.435Z" agent="5.0 (Windows NT 10.0; Win64; x64) AppleWebKit/537.36 (KHTML, like Gecko) Chrome/110.0.0.0 Safari/537.36" etag="51EibzNgu6VQ3MnxoRsv" version="20.8.20" type="github">
  <diagram id="uUx2opgquFOD66Lc3Fi1" name="第 1 页">
    <mxGraphModel dx="2396" dy="1078" grid="1" gridSize="10" guides="1" tooltips="1" connect="1" arrows="1" fold="1" page="1" pageScale="1" pageWidth="827" pageHeight="1169" math="0" shadow="0">
      <root>
        <mxCell id="0" />
        <mxCell id="1" parent="0" />
        <mxCell id="FQ1eCsuaFFMa_9nz9Wrn-199" style="edgeStyle=orthogonalEdgeStyle;rounded=0;orthogonalLoop=1;jettySize=auto;html=1;exitX=0.5;exitY=1;exitDx=0;exitDy=0;entryX=0.5;entryY=0;entryDx=0;entryDy=0;" edge="1" parent="1" source="FQ1eCsuaFFMa_9nz9Wrn-197" target="FQ1eCsuaFFMa_9nz9Wrn-198">
          <mxGeometry relative="1" as="geometry" />
        </mxCell>
        <mxCell id="FQ1eCsuaFFMa_9nz9Wrn-197" value="&lt;b&gt;Model&lt;/b&gt;" style="rounded=1;whiteSpace=wrap;html=1;" vertex="1" parent="1">
          <mxGeometry x="360" y="10" width="80" height="30" as="geometry" />
        </mxCell>
        <mxCell id="FQ1eCsuaFFMa_9nz9Wrn-201" style="edgeStyle=orthogonalEdgeStyle;rounded=0;orthogonalLoop=1;jettySize=auto;html=1;exitX=0.5;exitY=1;exitDx=0;exitDy=0;entryX=0.5;entryY=0;entryDx=0;entryDy=0;" edge="1" parent="1" source="FQ1eCsuaFFMa_9nz9Wrn-198" target="FQ1eCsuaFFMa_9nz9Wrn-200">
          <mxGeometry relative="1" as="geometry">
            <Array as="points">
              <mxPoint x="400" y="110" />
              <mxPoint x="80" y="110" />
            </Array>
          </mxGeometry>
        </mxCell>
        <mxCell id="FQ1eCsuaFFMa_9nz9Wrn-206" style="edgeStyle=orthogonalEdgeStyle;rounded=0;orthogonalLoop=1;jettySize=auto;html=1;exitX=0.5;exitY=1;exitDx=0;exitDy=0;entryX=0.5;entryY=0;entryDx=0;entryDy=0;" edge="1" parent="1" source="FQ1eCsuaFFMa_9nz9Wrn-198" target="FQ1eCsuaFFMa_9nz9Wrn-205">
          <mxGeometry relative="1" as="geometry">
            <Array as="points">
              <mxPoint x="400" y="110" />
              <mxPoint x="230" y="110" />
            </Array>
          </mxGeometry>
        </mxCell>
        <mxCell id="FQ1eCsuaFFMa_9nz9Wrn-213" style="edgeStyle=orthogonalEdgeStyle;rounded=0;orthogonalLoop=1;jettySize=auto;html=1;exitX=0.5;exitY=1;exitDx=0;exitDy=0;entryX=0.5;entryY=0;entryDx=0;entryDy=0;" edge="1" parent="1" source="FQ1eCsuaFFMa_9nz9Wrn-198" target="FQ1eCsuaFFMa_9nz9Wrn-207">
          <mxGeometry relative="1" as="geometry">
            <Array as="points">
              <mxPoint x="400" y="110" />
              <mxPoint x="310" y="110" />
            </Array>
          </mxGeometry>
        </mxCell>
        <mxCell id="FQ1eCsuaFFMa_9nz9Wrn-215" style="edgeStyle=orthogonalEdgeStyle;rounded=0;orthogonalLoop=1;jettySize=auto;html=1;exitX=0.5;exitY=1;exitDx=0;exitDy=0;entryX=0.5;entryY=0;entryDx=0;entryDy=0;" edge="1" parent="1" source="FQ1eCsuaFFMa_9nz9Wrn-198" target="FQ1eCsuaFFMa_9nz9Wrn-214">
          <mxGeometry relative="1" as="geometry">
            <Array as="points">
              <mxPoint x="400" y="110" />
              <mxPoint x="390" y="110" />
            </Array>
          </mxGeometry>
        </mxCell>
        <mxCell id="FQ1eCsuaFFMa_9nz9Wrn-217" style="edgeStyle=orthogonalEdgeStyle;rounded=0;orthogonalLoop=1;jettySize=auto;html=1;exitX=0.5;exitY=1;exitDx=0;exitDy=0;entryX=0.5;entryY=0;entryDx=0;entryDy=0;" edge="1" parent="1" source="FQ1eCsuaFFMa_9nz9Wrn-198" target="FQ1eCsuaFFMa_9nz9Wrn-216">
          <mxGeometry relative="1" as="geometry">
            <Array as="points">
              <mxPoint x="400" y="110" />
              <mxPoint x="990" y="110" />
            </Array>
          </mxGeometry>
        </mxCell>
        <mxCell id="FQ1eCsuaFFMa_9nz9Wrn-221" style="edgeStyle=orthogonalEdgeStyle;rounded=0;orthogonalLoop=1;jettySize=auto;html=1;exitX=0.5;exitY=1;exitDx=0;exitDy=0;entryX=0.5;entryY=0;entryDx=0;entryDy=0;" edge="1" parent="1" source="FQ1eCsuaFFMa_9nz9Wrn-198" target="FQ1eCsuaFFMa_9nz9Wrn-219">
          <mxGeometry relative="1" as="geometry">
            <Array as="points">
              <mxPoint x="400" y="110" />
              <mxPoint x="160" y="110" />
            </Array>
          </mxGeometry>
        </mxCell>
        <mxCell id="FQ1eCsuaFFMa_9nz9Wrn-278" style="edgeStyle=orthogonalEdgeStyle;rounded=0;orthogonalLoop=1;jettySize=auto;html=1;exitX=0.5;exitY=1;exitDx=0;exitDy=0;entryX=0.5;entryY=0;entryDx=0;entryDy=0;fontSize=18;" edge="1" parent="1" source="FQ1eCsuaFFMa_9nz9Wrn-198" target="FQ1eCsuaFFMa_9nz9Wrn-277">
          <mxGeometry relative="1" as="geometry">
            <Array as="points">
              <mxPoint x="400" y="110" />
              <mxPoint x="1640" y="110" />
            </Array>
          </mxGeometry>
        </mxCell>
        <mxCell id="FQ1eCsuaFFMa_9nz9Wrn-306" style="edgeStyle=orthogonalEdgeStyle;rounded=0;orthogonalLoop=1;jettySize=auto;html=1;exitX=0.5;exitY=1;exitDx=0;exitDy=0;entryX=0.5;entryY=0;entryDx=0;entryDy=0;fontSize=18;" edge="1" parent="1" source="FQ1eCsuaFFMa_9nz9Wrn-198" target="FQ1eCsuaFFMa_9nz9Wrn-299">
          <mxGeometry relative="1" as="geometry">
            <Array as="points">
              <mxPoint x="400" y="110" />
              <mxPoint x="2410" y="110" />
            </Array>
          </mxGeometry>
        </mxCell>
        <mxCell id="FQ1eCsuaFFMa_9nz9Wrn-198" value="&lt;b&gt;Contract&lt;/b&gt;" style="rounded=1;whiteSpace=wrap;html=1;" vertex="1" parent="1">
          <mxGeometry x="360" y="70" width="80" height="30" as="geometry" />
        </mxCell>
        <mxCell id="FQ1eCsuaFFMa_9nz9Wrn-200" value="Contract" style="ellipse;whiteSpace=wrap;html=1;" vertex="1" parent="1">
          <mxGeometry x="40" y="120" width="80" height="40" as="geometry" />
        </mxCell>
        <mxCell id="FQ1eCsuaFFMa_9nz9Wrn-205" value="::" style="ellipse;whiteSpace=wrap;html=1;" vertex="1" parent="1">
          <mxGeometry x="210" y="125" width="40" height="30" as="geometry" />
        </mxCell>
        <mxCell id="FQ1eCsuaFFMa_9nz9Wrn-223" style="edgeStyle=orthogonalEdgeStyle;rounded=0;orthogonalLoop=1;jettySize=auto;html=1;exitX=0.5;exitY=1;exitDx=0;exitDy=0;entryX=0.5;entryY=0;entryDx=0;entryDy=0;" edge="1" parent="1" source="FQ1eCsuaFFMa_9nz9Wrn-207" target="FQ1eCsuaFFMa_9nz9Wrn-222">
          <mxGeometry relative="1" as="geometry">
            <Array as="points">
              <mxPoint x="310" y="170" />
              <mxPoint x="150" y="170" />
            </Array>
          </mxGeometry>
        </mxCell>
        <mxCell id="FQ1eCsuaFFMa_9nz9Wrn-250" style="edgeStyle=orthogonalEdgeStyle;rounded=0;orthogonalLoop=1;jettySize=auto;html=1;exitX=0.5;exitY=1;exitDx=0;exitDy=0;fontSize=18;" edge="1" parent="1" source="FQ1eCsuaFFMa_9nz9Wrn-207">
          <mxGeometry relative="1" as="geometry">
            <mxPoint x="210" y="200" as="targetPoint" />
            <Array as="points">
              <mxPoint x="310" y="170" />
              <mxPoint x="210" y="170" />
            </Array>
          </mxGeometry>
        </mxCell>
        <mxCell id="FQ1eCsuaFFMa_9nz9Wrn-253" style="edgeStyle=orthogonalEdgeStyle;rounded=0;orthogonalLoop=1;jettySize=auto;html=1;exitX=0.5;exitY=1;exitDx=0;exitDy=0;fontSize=18;" edge="1" parent="1" source="FQ1eCsuaFFMa_9nz9Wrn-207" target="FQ1eCsuaFFMa_9nz9Wrn-252">
          <mxGeometry relative="1" as="geometry">
            <Array as="points">
              <mxPoint x="310" y="170" />
              <mxPoint x="290" y="170" />
            </Array>
          </mxGeometry>
        </mxCell>
        <mxCell id="FQ1eCsuaFFMa_9nz9Wrn-259" style="edgeStyle=orthogonalEdgeStyle;rounded=0;orthogonalLoop=1;jettySize=auto;html=1;exitX=0.5;exitY=1;exitDx=0;exitDy=0;entryX=0.5;entryY=0;entryDx=0;entryDy=0;fontSize=18;" edge="1" parent="1" source="FQ1eCsuaFFMa_9nz9Wrn-207" target="FQ1eCsuaFFMa_9nz9Wrn-257">
          <mxGeometry relative="1" as="geometry">
            <Array as="points">
              <mxPoint x="310" y="170" />
              <mxPoint x="370" y="170" />
            </Array>
          </mxGeometry>
        </mxCell>
        <mxCell id="FQ1eCsuaFFMa_9nz9Wrn-260" style="edgeStyle=orthogonalEdgeStyle;rounded=0;orthogonalLoop=1;jettySize=auto;html=1;exitX=0.5;exitY=1;exitDx=0;exitDy=0;entryX=0.5;entryY=0;entryDx=0;entryDy=0;fontSize=18;" edge="1" parent="1" source="FQ1eCsuaFFMa_9nz9Wrn-207" target="FQ1eCsuaFFMa_9nz9Wrn-258">
          <mxGeometry relative="1" as="geometry">
            <Array as="points">
              <mxPoint x="310" y="170" />
              <mxPoint x="454" y="170" />
            </Array>
          </mxGeometry>
        </mxCell>
        <mxCell id="FQ1eCsuaFFMa_9nz9Wrn-264" style="edgeStyle=orthogonalEdgeStyle;rounded=0;orthogonalLoop=1;jettySize=auto;html=1;exitX=0.5;exitY=1;exitDx=0;exitDy=0;entryX=0.5;entryY=0;entryDx=0;entryDy=0;fontSize=18;" edge="1" parent="1" source="FQ1eCsuaFFMa_9nz9Wrn-207" target="FQ1eCsuaFFMa_9nz9Wrn-263">
          <mxGeometry relative="1" as="geometry">
            <Array as="points">
              <mxPoint x="310" y="170" />
              <mxPoint x="550" y="170" />
            </Array>
          </mxGeometry>
        </mxCell>
        <mxCell id="FQ1eCsuaFFMa_9nz9Wrn-267" style="edgeStyle=orthogonalEdgeStyle;rounded=0;orthogonalLoop=1;jettySize=auto;html=1;exitX=0.5;exitY=1;exitDx=0;exitDy=0;entryX=0.5;entryY=0;entryDx=0;entryDy=0;fontSize=18;" edge="1" parent="1" source="FQ1eCsuaFFMa_9nz9Wrn-207" target="FQ1eCsuaFFMa_9nz9Wrn-265">
          <mxGeometry relative="1" as="geometry">
            <Array as="points">
              <mxPoint x="310" y="170" />
              <mxPoint x="620" y="170" />
            </Array>
          </mxGeometry>
        </mxCell>
        <mxCell id="FQ1eCsuaFFMa_9nz9Wrn-268" style="edgeStyle=orthogonalEdgeStyle;rounded=0;orthogonalLoop=1;jettySize=auto;html=1;exitX=0.5;exitY=1;exitDx=0;exitDy=0;entryX=0.5;entryY=0;entryDx=0;entryDy=0;fontSize=18;" edge="1" parent="1" source="FQ1eCsuaFFMa_9nz9Wrn-207" target="FQ1eCsuaFFMa_9nz9Wrn-266">
          <mxGeometry relative="1" as="geometry">
            <Array as="points">
              <mxPoint x="310" y="170" />
              <mxPoint x="715" y="170" />
            </Array>
          </mxGeometry>
        </mxCell>
        <mxCell id="FQ1eCsuaFFMa_9nz9Wrn-207" value="&lt;b&gt;Operation&lt;/b&gt;" style="rounded=1;whiteSpace=wrap;html=1;" vertex="1" parent="1">
          <mxGeometry x="270" y="125" width="80" height="30" as="geometry" />
        </mxCell>
        <mxCell id="FQ1eCsuaFFMa_9nz9Wrn-214" value="{" style="ellipse;whiteSpace=wrap;html=1;" vertex="1" parent="1">
          <mxGeometry x="370" y="125" width="40" height="30" as="geometry" />
        </mxCell>
        <mxCell id="FQ1eCsuaFFMa_9nz9Wrn-225" style="edgeStyle=orthogonalEdgeStyle;rounded=0;orthogonalLoop=1;jettySize=auto;html=1;exitX=0.5;exitY=1;exitDx=0;exitDy=0;entryX=0.5;entryY=0;entryDx=0;entryDy=0;" edge="1" parent="1" source="FQ1eCsuaFFMa_9nz9Wrn-216" target="FQ1eCsuaFFMa_9nz9Wrn-224">
          <mxGeometry relative="1" as="geometry">
            <Array as="points">
              <mxPoint x="990" y="155" />
              <mxPoint x="850" y="155" />
            </Array>
          </mxGeometry>
        </mxCell>
        <mxCell id="FQ1eCsuaFFMa_9nz9Wrn-227" style="edgeStyle=orthogonalEdgeStyle;rounded=0;orthogonalLoop=1;jettySize=auto;html=1;exitX=0.5;exitY=1;exitDx=0;exitDy=0;entryX=0.5;entryY=0;entryDx=0;entryDy=0;" edge="1" parent="1" source="FQ1eCsuaFFMa_9nz9Wrn-216" target="FQ1eCsuaFFMa_9nz9Wrn-226">
          <mxGeometry relative="1" as="geometry">
            <Array as="points">
              <mxPoint x="990" y="155" />
              <mxPoint x="1020" y="155" />
            </Array>
          </mxGeometry>
        </mxCell>
        <mxCell id="FQ1eCsuaFFMa_9nz9Wrn-229" style="edgeStyle=orthogonalEdgeStyle;rounded=0;orthogonalLoop=1;jettySize=auto;html=1;exitX=0.5;exitY=1;exitDx=0;exitDy=0;entryX=0.5;entryY=0;entryDx=0;entryDy=0;" edge="1" parent="1" source="FQ1eCsuaFFMa_9nz9Wrn-216" target="FQ1eCsuaFFMa_9nz9Wrn-228">
          <mxGeometry relative="1" as="geometry">
            <Array as="points">
              <mxPoint x="990" y="155" />
              <mxPoint x="1150" y="155" />
            </Array>
          </mxGeometry>
        </mxCell>
        <mxCell id="FQ1eCsuaFFMa_9nz9Wrn-233" style="edgeStyle=orthogonalEdgeStyle;rounded=0;orthogonalLoop=1;jettySize=auto;html=1;exitX=0.5;exitY=1;exitDx=0;exitDy=0;entryX=0.5;entryY=0;entryDx=0;entryDy=0;fontSize=24;" edge="1" parent="1" source="FQ1eCsuaFFMa_9nz9Wrn-216" target="FQ1eCsuaFFMa_9nz9Wrn-232">
          <mxGeometry relative="1" as="geometry">
            <Array as="points">
              <mxPoint x="990" y="155" />
              <mxPoint x="1300" y="155" />
            </Array>
          </mxGeometry>
        </mxCell>
        <mxCell id="FQ1eCsuaFFMa_9nz9Wrn-216" value="&lt;b&gt;Definition&lt;/b&gt;" style="rounded=1;whiteSpace=wrap;html=1;" vertex="1" parent="1">
          <mxGeometry x="950" y="120" width="80" height="30" as="geometry" />
        </mxCell>
        <mxCell id="FQ1eCsuaFFMa_9nz9Wrn-219" value="ID" style="ellipse;whiteSpace=wrap;html=1;" vertex="1" parent="1">
          <mxGeometry x="140" y="125" width="40" height="35" as="geometry" />
        </mxCell>
        <mxCell id="FQ1eCsuaFFMa_9nz9Wrn-222" value="ID" style="ellipse;whiteSpace=wrap;html=1;" vertex="1" parent="1">
          <mxGeometry x="130" y="200" width="40" height="35" as="geometry" />
        </mxCell>
        <mxCell id="FQ1eCsuaFFMa_9nz9Wrn-224" value="definition :" style="ellipse;whiteSpace=wrap;html=1;" vertex="1" parent="1">
          <mxGeometry x="820" y="175" width="60" height="40" as="geometry" />
        </mxCell>
        <mxCell id="FQ1eCsuaFFMa_9nz9Wrn-236" style="edgeStyle=orthogonalEdgeStyle;rounded=0;orthogonalLoop=1;jettySize=auto;html=1;exitX=0.5;exitY=1;exitDx=0;exitDy=0;entryX=0.5;entryY=0;entryDx=0;entryDy=0;fontSize=24;" edge="1" parent="1" source="FQ1eCsuaFFMa_9nz9Wrn-226" target="FQ1eCsuaFFMa_9nz9Wrn-235">
          <mxGeometry relative="1" as="geometry">
            <Array as="points">
              <mxPoint x="1020" y="225" />
              <mxPoint x="860" y="225" />
            </Array>
          </mxGeometry>
        </mxCell>
        <mxCell id="FQ1eCsuaFFMa_9nz9Wrn-238" style="edgeStyle=orthogonalEdgeStyle;rounded=0;orthogonalLoop=1;jettySize=auto;html=1;exitX=0.5;exitY=1;exitDx=0;exitDy=0;entryX=0.5;entryY=0;entryDx=0;entryDy=0;fontSize=24;" edge="1" parent="1" source="FQ1eCsuaFFMa_9nz9Wrn-226" target="FQ1eCsuaFFMa_9nz9Wrn-237">
          <mxGeometry relative="1" as="geometry">
            <Array as="points">
              <mxPoint x="1020" y="225" />
              <mxPoint x="920" y="225" />
            </Array>
          </mxGeometry>
        </mxCell>
        <mxCell id="FQ1eCsuaFFMa_9nz9Wrn-240" style="edgeStyle=orthogonalEdgeStyle;rounded=0;orthogonalLoop=1;jettySize=auto;html=1;exitX=0.5;exitY=1;exitDx=0;exitDy=0;entryX=0.5;entryY=0;entryDx=0;entryDy=0;fontSize=24;" edge="1" parent="1" source="FQ1eCsuaFFMa_9nz9Wrn-226" target="FQ1eCsuaFFMa_9nz9Wrn-239">
          <mxGeometry relative="1" as="geometry">
            <Array as="points">
              <mxPoint x="1020" y="225" />
              <mxPoint x="1005" y="225" />
            </Array>
          </mxGeometry>
        </mxCell>
        <mxCell id="FQ1eCsuaFFMa_9nz9Wrn-244" style="edgeStyle=orthogonalEdgeStyle;rounded=0;orthogonalLoop=1;jettySize=auto;html=1;exitX=0.5;exitY=1;exitDx=0;exitDy=0;entryX=0.5;entryY=0;entryDx=0;entryDy=0;fontSize=18;" edge="1" parent="1" source="FQ1eCsuaFFMa_9nz9Wrn-226" target="FQ1eCsuaFFMa_9nz9Wrn-243">
          <mxGeometry relative="1" as="geometry">
            <Array as="points">
              <mxPoint x="1020" y="225" />
              <mxPoint x="1090" y="225" />
            </Array>
          </mxGeometry>
        </mxCell>
        <mxCell id="FQ1eCsuaFFMa_9nz9Wrn-247" style="edgeStyle=orthogonalEdgeStyle;rounded=0;orthogonalLoop=1;jettySize=auto;html=1;exitX=0.5;exitY=1;exitDx=0;exitDy=0;entryX=0.557;entryY=-0.058;entryDx=0;entryDy=0;entryPerimeter=0;fontSize=18;" edge="1" parent="1" source="FQ1eCsuaFFMa_9nz9Wrn-226" target="FQ1eCsuaFFMa_9nz9Wrn-246">
          <mxGeometry relative="1" as="geometry">
            <Array as="points">
              <mxPoint x="1020" y="225" />
              <mxPoint x="1248" y="225" />
            </Array>
          </mxGeometry>
        </mxCell>
        <mxCell id="FQ1eCsuaFFMa_9nz9Wrn-226" value="&lt;b&gt;VariableDeclarationCS&lt;/b&gt;" style="rounded=1;whiteSpace=wrap;html=1;" vertex="1" parent="1">
          <mxGeometry x="950" y="185" width="140" height="30" as="geometry" />
        </mxCell>
        <mxCell id="FQ1eCsuaFFMa_9nz9Wrn-228" value="," style="ellipse;whiteSpace=wrap;html=1;" vertex="1" parent="1">
          <mxGeometry x="1130" y="185" width="40" height="30" as="geometry" />
        </mxCell>
        <mxCell id="FQ1eCsuaFFMa_9nz9Wrn-231" value="&lt;font style=&quot;font-size: 24px;&quot;&gt;*&lt;/font&gt;" style="text;strokeColor=none;align=center;fillColor=none;html=1;verticalAlign=middle;whiteSpace=wrap;rounded=0;" vertex="1" parent="1">
          <mxGeometry x="1140" y="165" width="30" height="10" as="geometry" />
        </mxCell>
        <mxCell id="FQ1eCsuaFFMa_9nz9Wrn-232" value="&lt;b&gt;VariableDeclarationCS&lt;/b&gt;" style="rounded=1;whiteSpace=wrap;html=1;" vertex="1" parent="1">
          <mxGeometry x="1230" y="185" width="140" height="30" as="geometry" />
        </mxCell>
        <mxCell id="FQ1eCsuaFFMa_9nz9Wrn-234" value="&lt;font style=&quot;font-size: 24px;&quot;&gt;*&lt;/font&gt;" style="text;strokeColor=none;align=center;fillColor=none;html=1;verticalAlign=middle;whiteSpace=wrap;rounded=0;" vertex="1" parent="1">
          <mxGeometry x="1290" y="165" width="30" height="10" as="geometry" />
        </mxCell>
        <mxCell id="FQ1eCsuaFFMa_9nz9Wrn-235" value="ID" style="ellipse;whiteSpace=wrap;html=1;" vertex="1" parent="1">
          <mxGeometry x="840" y="265" width="40" height="35" as="geometry" />
        </mxCell>
        <mxCell id="FQ1eCsuaFFMa_9nz9Wrn-237" value=":" style="ellipse;whiteSpace=wrap;html=1;" vertex="1" parent="1">
          <mxGeometry x="900" y="270" width="40" height="30" as="geometry" />
        </mxCell>
        <mxCell id="FQ1eCsuaFFMa_9nz9Wrn-239" value="TypeCS" style="ellipse;whiteSpace=wrap;html=1;" vertex="1" parent="1">
          <mxGeometry x="970" y="263.75" width="70" height="37.5" as="geometry" />
        </mxCell>
        <mxCell id="FQ1eCsuaFFMa_9nz9Wrn-241" value="&lt;font style=&quot;font-size: 18px;&quot;&gt;?&lt;/font&gt;" style="text;strokeColor=none;align=center;fillColor=none;html=1;verticalAlign=middle;whiteSpace=wrap;rounded=0;" vertex="1" parent="1">
          <mxGeometry x="910" y="245" width="30" height="11.25" as="geometry" />
        </mxCell>
        <mxCell id="FQ1eCsuaFFMa_9nz9Wrn-242" value="&lt;font style=&quot;font-size: 18px;&quot;&gt;?&lt;/font&gt;" style="text;strokeColor=none;align=center;fillColor=none;html=1;verticalAlign=middle;whiteSpace=wrap;rounded=0;" vertex="1" parent="1">
          <mxGeometry x="1000" y="245" width="30" height="11.25" as="geometry" />
        </mxCell>
        <mxCell id="FQ1eCsuaFFMa_9nz9Wrn-243" value="=" style="ellipse;whiteSpace=wrap;html=1;" vertex="1" parent="1">
          <mxGeometry x="1070" y="265" width="40" height="30" as="geometry" />
        </mxCell>
        <mxCell id="FQ1eCsuaFFMa_9nz9Wrn-245" value="&lt;font style=&quot;font-size: 18px;&quot;&gt;?&lt;/font&gt;" style="text;strokeColor=none;align=center;fillColor=none;html=1;verticalAlign=middle;whiteSpace=wrap;rounded=0;" vertex="1" parent="1">
          <mxGeometry x="1080" y="245" width="30" height="11.25" as="geometry" />
        </mxCell>
        <mxCell id="FQ1eCsuaFFMa_9nz9Wrn-246" value="&lt;b&gt;OCLExpressionCS&lt;/b&gt;" style="rounded=1;whiteSpace=wrap;html=1;" vertex="1" parent="1">
          <mxGeometry x="1170" y="263.75" width="140" height="30" as="geometry" />
        </mxCell>
        <mxCell id="FQ1eCsuaFFMa_9nz9Wrn-248" value="&lt;font style=&quot;font-size: 18px;&quot;&gt;?&lt;/font&gt;" style="text;strokeColor=none;align=center;fillColor=none;html=1;verticalAlign=middle;whiteSpace=wrap;rounded=0;" vertex="1" parent="1">
          <mxGeometry x="1240" y="245" width="30" height="11.25" as="geometry" />
        </mxCell>
        <mxCell id="FQ1eCsuaFFMa_9nz9Wrn-249" value="(" style="ellipse;whiteSpace=wrap;html=1;" vertex="1" parent="1">
          <mxGeometry x="190" y="202.5" width="40" height="30" as="geometry" />
        </mxCell>
        <mxCell id="FQ1eCsuaFFMa_9nz9Wrn-274" style="edgeStyle=orthogonalEdgeStyle;rounded=0;orthogonalLoop=1;jettySize=auto;html=1;exitX=0.5;exitY=1;exitDx=0;exitDy=0;entryX=0.5;entryY=0;entryDx=0;entryDy=0;fontSize=18;" edge="1" parent="1" source="FQ1eCsuaFFMa_9nz9Wrn-252" target="FQ1eCsuaFFMa_9nz9Wrn-271">
          <mxGeometry relative="1" as="geometry">
            <Array as="points">
              <mxPoint x="290" y="240" />
              <mxPoint x="200" y="240" />
            </Array>
          </mxGeometry>
        </mxCell>
        <mxCell id="FQ1eCsuaFFMa_9nz9Wrn-275" style="edgeStyle=orthogonalEdgeStyle;rounded=0;orthogonalLoop=1;jettySize=auto;html=1;exitX=0.5;exitY=1;exitDx=0;exitDy=0;entryX=0.5;entryY=0;entryDx=0;entryDy=0;fontSize=18;" edge="1" parent="1" source="FQ1eCsuaFFMa_9nz9Wrn-252" target="FQ1eCsuaFFMa_9nz9Wrn-272">
          <mxGeometry relative="1" as="geometry">
            <Array as="points">
              <mxPoint x="290" y="240" />
              <mxPoint x="270" y="240" />
            </Array>
          </mxGeometry>
        </mxCell>
        <mxCell id="FQ1eCsuaFFMa_9nz9Wrn-276" style="edgeStyle=orthogonalEdgeStyle;rounded=0;orthogonalLoop=1;jettySize=auto;html=1;exitX=0.5;exitY=1;exitDx=0;exitDy=0;entryX=0.5;entryY=0;entryDx=0;entryDy=0;fontSize=18;" edge="1" parent="1" source="FQ1eCsuaFFMa_9nz9Wrn-252" target="FQ1eCsuaFFMa_9nz9Wrn-273">
          <mxGeometry relative="1" as="geometry">
            <Array as="points">
              <mxPoint x="290" y="240" />
              <mxPoint x="365" y="240" />
            </Array>
          </mxGeometry>
        </mxCell>
        <mxCell id="FQ1eCsuaFFMa_9nz9Wrn-252" value="&lt;b&gt;Parameter&lt;/b&gt;" style="rounded=1;whiteSpace=wrap;html=1;" vertex="1" parent="1">
          <mxGeometry x="250" y="200" width="80" height="30" as="geometry" />
        </mxCell>
        <mxCell id="FQ1eCsuaFFMa_9nz9Wrn-254" value="&lt;font style=&quot;font-size: 18px;&quot;&gt;?&lt;/font&gt;" style="text;strokeColor=none;align=center;fillColor=none;html=1;verticalAlign=middle;whiteSpace=wrap;rounded=0;" vertex="1" parent="1">
          <mxGeometry x="280" y="178.75" width="30" height="11.25" as="geometry" />
        </mxCell>
        <mxCell id="FQ1eCsuaFFMa_9nz9Wrn-257" value="," style="ellipse;whiteSpace=wrap;html=1;" vertex="1" parent="1">
          <mxGeometry x="350" y="200" width="40" height="30" as="geometry" />
        </mxCell>
        <mxCell id="FQ1eCsuaFFMa_9nz9Wrn-258" value="&lt;b&gt;Parameter&lt;/b&gt;" style="rounded=1;whiteSpace=wrap;html=1;" vertex="1" parent="1">
          <mxGeometry x="414" y="200" width="80" height="30" as="geometry" />
        </mxCell>
        <mxCell id="FQ1eCsuaFFMa_9nz9Wrn-261" value="&lt;font style=&quot;font-size: 24px;&quot;&gt;*&lt;/font&gt;" style="text;strokeColor=none;align=center;fillColor=none;html=1;verticalAlign=middle;whiteSpace=wrap;rounded=0;" vertex="1" parent="1">
          <mxGeometry x="360" y="185" width="30" height="10" as="geometry" />
        </mxCell>
        <mxCell id="FQ1eCsuaFFMa_9nz9Wrn-262" value="&lt;font style=&quot;font-size: 24px;&quot;&gt;*&lt;/font&gt;" style="text;strokeColor=none;align=center;fillColor=none;html=1;verticalAlign=middle;whiteSpace=wrap;rounded=0;" vertex="1" parent="1">
          <mxGeometry x="450" y="185" width="30" height="10" as="geometry" />
        </mxCell>
        <mxCell id="FQ1eCsuaFFMa_9nz9Wrn-263" value=")" style="ellipse;whiteSpace=wrap;html=1;" vertex="1" parent="1">
          <mxGeometry x="530" y="200" width="40" height="30" as="geometry" />
        </mxCell>
        <mxCell id="FQ1eCsuaFFMa_9nz9Wrn-265" value=":" style="ellipse;whiteSpace=wrap;html=1;" vertex="1" parent="1">
          <mxGeometry x="600" y="200" width="40" height="30" as="geometry" />
        </mxCell>
        <mxCell id="FQ1eCsuaFFMa_9nz9Wrn-266" value="TypeCS" style="ellipse;whiteSpace=wrap;html=1;" vertex="1" parent="1">
          <mxGeometry x="680" y="200" width="70" height="37.5" as="geometry" />
        </mxCell>
        <mxCell id="FQ1eCsuaFFMa_9nz9Wrn-269" value="&lt;font style=&quot;font-size: 18px;&quot;&gt;?&lt;/font&gt;" style="text;strokeColor=none;align=center;fillColor=none;html=1;verticalAlign=middle;whiteSpace=wrap;rounded=0;" vertex="1" parent="1">
          <mxGeometry x="610" y="178.75" width="30" height="11.25" as="geometry" />
        </mxCell>
        <mxCell id="FQ1eCsuaFFMa_9nz9Wrn-270" value="&lt;font style=&quot;font-size: 18px;&quot;&gt;?&lt;/font&gt;" style="text;strokeColor=none;align=center;fillColor=none;html=1;verticalAlign=middle;whiteSpace=wrap;rounded=0;" vertex="1" parent="1">
          <mxGeometry x="710" y="178.75" width="30" height="11.25" as="geometry" />
        </mxCell>
        <mxCell id="FQ1eCsuaFFMa_9nz9Wrn-271" value="ID" style="ellipse;whiteSpace=wrap;html=1;" vertex="1" parent="1">
          <mxGeometry x="180" y="280" width="40" height="35" as="geometry" />
        </mxCell>
        <mxCell id="FQ1eCsuaFFMa_9nz9Wrn-272" value=":" style="ellipse;whiteSpace=wrap;html=1;" vertex="1" parent="1">
          <mxGeometry x="250" y="280" width="40" height="30" as="geometry" />
        </mxCell>
        <mxCell id="FQ1eCsuaFFMa_9nz9Wrn-273" value="TypeCS" style="ellipse;whiteSpace=wrap;html=1;" vertex="1" parent="1">
          <mxGeometry x="330" y="280" width="70" height="37.5" as="geometry" />
        </mxCell>
        <mxCell id="FQ1eCsuaFFMa_9nz9Wrn-281" style="edgeStyle=orthogonalEdgeStyle;rounded=0;orthogonalLoop=1;jettySize=auto;html=1;exitX=0.5;exitY=1;exitDx=0;exitDy=0;entryX=0.5;entryY=0;entryDx=0;entryDy=0;fontSize=18;" edge="1" parent="1" source="FQ1eCsuaFFMa_9nz9Wrn-277" target="FQ1eCsuaFFMa_9nz9Wrn-279">
          <mxGeometry relative="1" as="geometry">
            <Array as="points">
              <mxPoint x="1640" y="160" />
              <mxPoint x="1525" y="160" />
            </Array>
          </mxGeometry>
        </mxCell>
        <mxCell id="FQ1eCsuaFFMa_9nz9Wrn-284" style="edgeStyle=orthogonalEdgeStyle;rounded=0;orthogonalLoop=1;jettySize=auto;html=1;exitX=0.5;exitY=1;exitDx=0;exitDy=0;entryX=0.55;entryY=-0.067;entryDx=0;entryDy=0;entryPerimeter=0;fontSize=18;" edge="1" parent="1" source="FQ1eCsuaFFMa_9nz9Wrn-277" target="FQ1eCsuaFFMa_9nz9Wrn-283">
          <mxGeometry relative="1" as="geometry">
            <Array as="points">
              <mxPoint x="1640" y="160" />
              <mxPoint x="1731" y="160" />
            </Array>
          </mxGeometry>
        </mxCell>
        <mxCell id="FQ1eCsuaFFMa_9nz9Wrn-289" style="edgeStyle=orthogonalEdgeStyle;rounded=0;orthogonalLoop=1;jettySize=auto;html=1;exitX=0.5;exitY=1;exitDx=0;exitDy=0;entryX=0.5;entryY=0;entryDx=0;entryDy=0;fontSize=18;" edge="1" parent="1" source="FQ1eCsuaFFMa_9nz9Wrn-277" target="FQ1eCsuaFFMa_9nz9Wrn-286">
          <mxGeometry relative="1" as="geometry">
            <Array as="points">
              <mxPoint x="1640" y="160" />
              <mxPoint x="1730" y="160" />
              <mxPoint x="1730" y="200" />
              <mxPoint x="1870" y="200" />
            </Array>
          </mxGeometry>
        </mxCell>
        <mxCell id="FQ1eCsuaFFMa_9nz9Wrn-292" style="edgeStyle=orthogonalEdgeStyle;rounded=0;orthogonalLoop=1;jettySize=auto;html=1;exitX=0.5;exitY=1;exitDx=0;exitDy=0;entryX=0.5;entryY=0;entryDx=0;entryDy=0;fontSize=18;" edge="1" parent="1" source="FQ1eCsuaFFMa_9nz9Wrn-277" target="FQ1eCsuaFFMa_9nz9Wrn-291">
          <mxGeometry relative="1" as="geometry">
            <Array as="points">
              <mxPoint x="1640" y="160" />
              <mxPoint x="1730" y="160" />
              <mxPoint x="1730" y="200" />
              <mxPoint x="2010" y="200" />
            </Array>
          </mxGeometry>
        </mxCell>
        <mxCell id="FQ1eCsuaFFMa_9nz9Wrn-293" style="edgeStyle=orthogonalEdgeStyle;rounded=0;orthogonalLoop=1;jettySize=auto;html=1;exitX=0.5;exitY=1;exitDx=0;exitDy=0;entryX=0.5;entryY=0;entryDx=0;entryDy=0;fontSize=18;" edge="1" parent="1" source="FQ1eCsuaFFMa_9nz9Wrn-277" target="FQ1eCsuaFFMa_9nz9Wrn-287">
          <mxGeometry relative="1" as="geometry">
            <Array as="points">
              <mxPoint x="1640" y="160" />
              <mxPoint x="1730" y="160" />
              <mxPoint x="1730" y="200" />
              <mxPoint x="2170" y="200" />
            </Array>
          </mxGeometry>
        </mxCell>
        <mxCell id="FQ1eCsuaFFMa_9nz9Wrn-277" value="&lt;b&gt;Precondition&lt;/b&gt;" style="rounded=1;whiteSpace=wrap;html=1;" vertex="1" parent="1">
          <mxGeometry x="1600" y="120" width="80" height="30" as="geometry" />
        </mxCell>
        <mxCell id="FQ1eCsuaFFMa_9nz9Wrn-279" value="precondition :" style="ellipse;whiteSpace=wrap;html=1;" vertex="1" parent="1">
          <mxGeometry x="1480" y="175" width="90" height="40" as="geometry" />
        </mxCell>
        <mxCell id="FQ1eCsuaFFMa_9nz9Wrn-283" value="&lt;b&gt;OCLExpressionCS&lt;/b&gt;" style="rounded=1;whiteSpace=wrap;html=1;" vertex="1" parent="1">
          <mxGeometry x="1654" y="230" width="140" height="30" as="geometry" />
        </mxCell>
        <mxCell id="FQ1eCsuaFFMa_9nz9Wrn-286" value="{" style="ellipse;whiteSpace=wrap;html=1;" vertex="1" parent="1">
          <mxGeometry x="1850" y="230" width="40" height="30" as="geometry" />
        </mxCell>
        <mxCell id="FQ1eCsuaFFMa_9nz9Wrn-287" value="}" style="ellipse;whiteSpace=wrap;html=1;" vertex="1" parent="1">
          <mxGeometry x="2150" y="230" width="40" height="30" as="geometry" />
        </mxCell>
        <mxCell id="FQ1eCsuaFFMa_9nz9Wrn-290" value="" style="line;strokeWidth=4;direction=south;html=1;perimeter=backbonePerimeter;points=[];outlineConnect=0;fontSize=18;" vertex="1" parent="1">
          <mxGeometry x="1820" y="215" width="10" height="65" as="geometry" />
        </mxCell>
        <mxCell id="FQ1eCsuaFFMa_9nz9Wrn-291" value="&lt;b&gt;OCLExpressionCS&lt;/b&gt;" style="rounded=1;whiteSpace=wrap;html=1;" vertex="1" parent="1">
          <mxGeometry x="1940" y="230" width="140" height="30" as="geometry" />
        </mxCell>
        <mxCell id="FQ1eCsuaFFMa_9nz9Wrn-294" style="edgeStyle=orthogonalEdgeStyle;rounded=0;orthogonalLoop=1;jettySize=auto;html=1;exitX=0.5;exitY=1;exitDx=0;exitDy=0;entryX=0.5;entryY=0;entryDx=0;entryDy=0;fontSize=18;" edge="1" parent="1" source="FQ1eCsuaFFMa_9nz9Wrn-299" target="FQ1eCsuaFFMa_9nz9Wrn-300">
          <mxGeometry relative="1" as="geometry">
            <Array as="points">
              <mxPoint x="2410" y="160" />
              <mxPoint x="2295" y="160" />
            </Array>
          </mxGeometry>
        </mxCell>
        <mxCell id="FQ1eCsuaFFMa_9nz9Wrn-295" style="edgeStyle=orthogonalEdgeStyle;rounded=0;orthogonalLoop=1;jettySize=auto;html=1;exitX=0.5;exitY=1;exitDx=0;exitDy=0;entryX=0.55;entryY=-0.067;entryDx=0;entryDy=0;entryPerimeter=0;fontSize=18;" edge="1" parent="1" source="FQ1eCsuaFFMa_9nz9Wrn-299" target="FQ1eCsuaFFMa_9nz9Wrn-301">
          <mxGeometry relative="1" as="geometry">
            <Array as="points">
              <mxPoint x="2410" y="160" />
              <mxPoint x="2501" y="160" />
            </Array>
          </mxGeometry>
        </mxCell>
        <mxCell id="FQ1eCsuaFFMa_9nz9Wrn-296" style="edgeStyle=orthogonalEdgeStyle;rounded=0;orthogonalLoop=1;jettySize=auto;html=1;exitX=0.5;exitY=1;exitDx=0;exitDy=0;entryX=0.5;entryY=0;entryDx=0;entryDy=0;fontSize=18;" edge="1" parent="1" source="FQ1eCsuaFFMa_9nz9Wrn-299" target="FQ1eCsuaFFMa_9nz9Wrn-302">
          <mxGeometry relative="1" as="geometry">
            <Array as="points">
              <mxPoint x="2410" y="160" />
              <mxPoint x="2500" y="160" />
              <mxPoint x="2500" y="200" />
              <mxPoint x="2640" y="200" />
            </Array>
          </mxGeometry>
        </mxCell>
        <mxCell id="FQ1eCsuaFFMa_9nz9Wrn-297" style="edgeStyle=orthogonalEdgeStyle;rounded=0;orthogonalLoop=1;jettySize=auto;html=1;exitX=0.5;exitY=1;exitDx=0;exitDy=0;entryX=0.5;entryY=0;entryDx=0;entryDy=0;fontSize=18;" edge="1" parent="1" source="FQ1eCsuaFFMa_9nz9Wrn-299" target="FQ1eCsuaFFMa_9nz9Wrn-305">
          <mxGeometry relative="1" as="geometry">
            <Array as="points">
              <mxPoint x="2410" y="160" />
              <mxPoint x="2500" y="160" />
              <mxPoint x="2500" y="200" />
              <mxPoint x="2780" y="200" />
            </Array>
          </mxGeometry>
        </mxCell>
        <mxCell id="FQ1eCsuaFFMa_9nz9Wrn-298" style="edgeStyle=orthogonalEdgeStyle;rounded=0;orthogonalLoop=1;jettySize=auto;html=1;exitX=0.5;exitY=1;exitDx=0;exitDy=0;entryX=0.5;entryY=0;entryDx=0;entryDy=0;fontSize=18;" edge="1" parent="1" source="FQ1eCsuaFFMa_9nz9Wrn-299" target="FQ1eCsuaFFMa_9nz9Wrn-303">
          <mxGeometry relative="1" as="geometry">
            <Array as="points">
              <mxPoint x="2410" y="160" />
              <mxPoint x="2500" y="160" />
              <mxPoint x="2500" y="200" />
              <mxPoint x="2940" y="200" />
            </Array>
          </mxGeometry>
        </mxCell>
        <mxCell id="FQ1eCsuaFFMa_9nz9Wrn-299" value="&lt;b&gt;Postcondition&lt;/b&gt;" style="rounded=1;whiteSpace=wrap;html=1;" vertex="1" parent="1">
          <mxGeometry x="2370" y="120" width="80" height="30" as="geometry" />
        </mxCell>
        <mxCell id="FQ1eCsuaFFMa_9nz9Wrn-300" value="postcondition :" style="ellipse;whiteSpace=wrap;html=1;" vertex="1" parent="1">
          <mxGeometry x="2250" y="175" width="90" height="40" as="geometry" />
        </mxCell>
        <mxCell id="FQ1eCsuaFFMa_9nz9Wrn-301" value="&lt;b&gt;OCLExpressionCS&lt;/b&gt;" style="rounded=1;whiteSpace=wrap;html=1;" vertex="1" parent="1">
          <mxGeometry x="2424" y="230" width="140" height="30" as="geometry" />
        </mxCell>
        <mxCell id="FQ1eCsuaFFMa_9nz9Wrn-302" value="{" style="ellipse;whiteSpace=wrap;html=1;" vertex="1" parent="1">
          <mxGeometry x="2620" y="230" width="40" height="30" as="geometry" />
        </mxCell>
        <mxCell id="FQ1eCsuaFFMa_9nz9Wrn-303" value="}" style="ellipse;whiteSpace=wrap;html=1;" vertex="1" parent="1">
          <mxGeometry x="2920" y="230" width="40" height="30" as="geometry" />
        </mxCell>
        <mxCell id="FQ1eCsuaFFMa_9nz9Wrn-304" value="" style="line;strokeWidth=4;direction=south;html=1;perimeter=backbonePerimeter;points=[];outlineConnect=0;fontSize=18;" vertex="1" parent="1">
          <mxGeometry x="2590" y="215" width="10" height="65" as="geometry" />
        </mxCell>
        <mxCell id="FQ1eCsuaFFMa_9nz9Wrn-305" value="&lt;b&gt;OCLExpressionCS&lt;/b&gt;" style="rounded=1;whiteSpace=wrap;html=1;" vertex="1" parent="1">
          <mxGeometry x="2710" y="230" width="140" height="30" as="geometry" />
        </mxCell>
        <mxCell id="FQ1eCsuaFFMa_9nz9Wrn-311" style="edgeStyle=orthogonalEdgeStyle;rounded=0;orthogonalLoop=1;jettySize=auto;html=1;exitX=0.5;exitY=1;exitDx=0;exitDy=0;entryX=0.5;entryY=0;entryDx=0;entryDy=0;fontSize=18;" edge="1" parent="1" source="FQ1eCsuaFFMa_9nz9Wrn-307" target="FQ1eCsuaFFMa_9nz9Wrn-309">
          <mxGeometry relative="1" as="geometry">
            <Array as="points">
              <mxPoint x="1655" y="450" />
              <mxPoint x="340" y="450" />
            </Array>
          </mxGeometry>
        </mxCell>
        <mxCell id="FQ1eCsuaFFMa_9nz9Wrn-336" style="edgeStyle=orthogonalEdgeStyle;rounded=0;orthogonalLoop=1;jettySize=auto;html=1;exitX=0.5;exitY=1;exitDx=0;exitDy=0;entryX=0.5;entryY=0;entryDx=0;entryDy=0;fontSize=18;" edge="1" parent="1" source="FQ1eCsuaFFMa_9nz9Wrn-307" target="FQ1eCsuaFFMa_9nz9Wrn-332">
          <mxGeometry relative="1" as="geometry">
            <Array as="points">
              <mxPoint x="1655" y="450" />
              <mxPoint x="1665" y="450" />
            </Array>
          </mxGeometry>
        </mxCell>
        <mxCell id="FQ1eCsuaFFMa_9nz9Wrn-307" value="&lt;b&gt;OCLExpressionCS&lt;/b&gt;" style="rounded=1;whiteSpace=wrap;html=1;" vertex="1" parent="1">
          <mxGeometry x="1580" y="400" width="150" height="40" as="geometry" />
        </mxCell>
        <mxCell id="FQ1eCsuaFFMa_9nz9Wrn-313" style="edgeStyle=orthogonalEdgeStyle;rounded=0;orthogonalLoop=1;jettySize=auto;html=1;exitX=0.5;exitY=1;exitDx=0;exitDy=0;entryX=0.5;entryY=0;entryDx=0;entryDy=0;fontSize=18;" edge="1" parent="1" source="FQ1eCsuaFFMa_9nz9Wrn-309" target="FQ1eCsuaFFMa_9nz9Wrn-312">
          <mxGeometry relative="1" as="geometry">
            <Array as="points">
              <mxPoint x="340" y="550" />
              <mxPoint x="140" y="550" />
            </Array>
          </mxGeometry>
        </mxCell>
        <mxCell id="FQ1eCsuaFFMa_9nz9Wrn-315" style="edgeStyle=orthogonalEdgeStyle;rounded=0;orthogonalLoop=1;jettySize=auto;html=1;exitX=0.5;exitY=1;exitDx=0;exitDy=0;fontSize=18;" edge="1" parent="1" source="FQ1eCsuaFFMa_9nz9Wrn-309">
          <mxGeometry relative="1" as="geometry">
            <mxPoint x="280" y="570" as="targetPoint" />
            <Array as="points">
              <mxPoint x="340" y="550" />
              <mxPoint x="280" y="550" />
            </Array>
          </mxGeometry>
        </mxCell>
        <mxCell id="FQ1eCsuaFFMa_9nz9Wrn-317" style="edgeStyle=orthogonalEdgeStyle;rounded=0;orthogonalLoop=1;jettySize=auto;html=1;exitX=0.5;exitY=1;exitDx=0;exitDy=0;entryX=0.5;entryY=0;entryDx=0;entryDy=0;fontSize=18;" edge="1" parent="1" source="FQ1eCsuaFFMa_9nz9Wrn-309" target="FQ1eCsuaFFMa_9nz9Wrn-316">
          <mxGeometry relative="1" as="geometry">
            <Array as="points">
              <mxPoint x="340" y="550" />
              <mxPoint x="430" y="550" />
            </Array>
          </mxGeometry>
        </mxCell>
        <mxCell id="FQ1eCsuaFFMa_9nz9Wrn-319" style="edgeStyle=orthogonalEdgeStyle;rounded=0;orthogonalLoop=1;jettySize=auto;html=1;exitX=0.5;exitY=1;exitDx=0;exitDy=0;fontSize=18;" edge="1" parent="1" source="FQ1eCsuaFFMa_9nz9Wrn-309">
          <mxGeometry relative="1" as="geometry">
            <mxPoint x="590" y="570" as="targetPoint" />
            <Array as="points">
              <mxPoint x="340" y="550" />
              <mxPoint x="590" y="550" />
            </Array>
          </mxGeometry>
        </mxCell>
        <mxCell id="FQ1eCsuaFFMa_9nz9Wrn-329" style="edgeStyle=orthogonalEdgeStyle;rounded=0;orthogonalLoop=1;jettySize=auto;html=1;exitX=0.5;exitY=1;exitDx=0;exitDy=0;entryX=0.5;entryY=0;entryDx=0;entryDy=0;fontSize=18;" edge="1" parent="1" source="FQ1eCsuaFFMa_9nz9Wrn-309" target="FQ1eCsuaFFMa_9nz9Wrn-328">
          <mxGeometry relative="1" as="geometry">
            <Array as="points">
              <mxPoint x="340" y="550" />
              <mxPoint x="730" y="550" />
            </Array>
          </mxGeometry>
        </mxCell>
        <mxCell id="FQ1eCsuaFFMa_9nz9Wrn-331" style="edgeStyle=orthogonalEdgeStyle;rounded=0;orthogonalLoop=1;jettySize=auto;html=1;exitX=0.5;exitY=1;exitDx=0;exitDy=0;entryX=0.5;entryY=0;entryDx=0;entryDy=0;fontSize=18;" edge="1" parent="1" source="FQ1eCsuaFFMa_9nz9Wrn-309" target="FQ1eCsuaFFMa_9nz9Wrn-330">
          <mxGeometry relative="1" as="geometry">
            <Array as="points">
              <mxPoint x="340" y="550" />
              <mxPoint x="902" y="550" />
            </Array>
          </mxGeometry>
        </mxCell>
        <mxCell id="FQ1eCsuaFFMa_9nz9Wrn-309" value="&lt;b&gt;LetExpCS&lt;/b&gt;" style="rounded=1;whiteSpace=wrap;html=1;" vertex="1" parent="1">
          <mxGeometry x="300" y="510" width="80" height="30" as="geometry" />
        </mxCell>
        <mxCell id="FQ1eCsuaFFMa_9nz9Wrn-312" value="let" style="ellipse;whiteSpace=wrap;html=1;" vertex="1" parent="1">
          <mxGeometry x="120" y="567" width="40" height="35" as="geometry" />
        </mxCell>
        <mxCell id="FQ1eCsuaFFMa_9nz9Wrn-314" value="&lt;b&gt;VariableDeclarationCS&lt;/b&gt;" style="rounded=1;whiteSpace=wrap;html=1;" vertex="1" parent="1">
          <mxGeometry x="210" y="572" width="140" height="30" as="geometry" />
        </mxCell>
        <mxCell id="FQ1eCsuaFFMa_9nz9Wrn-316" value="," style="ellipse;whiteSpace=wrap;html=1;" vertex="1" parent="1">
          <mxGeometry x="410" y="572" width="40" height="35" as="geometry" />
        </mxCell>
        <mxCell id="FQ1eCsuaFFMa_9nz9Wrn-318" value="&lt;b&gt;VariableDeclarationCS&lt;/b&gt;" style="rounded=1;whiteSpace=wrap;html=1;" vertex="1" parent="1">
          <mxGeometry x="510" y="572" width="140" height="30" as="geometry" />
        </mxCell>
        <mxCell id="FQ1eCsuaFFMa_9nz9Wrn-320" value="&lt;font style=&quot;font-size: 24px;&quot;&gt;*&lt;/font&gt;" style="text;strokeColor=none;align=center;fillColor=none;html=1;verticalAlign=middle;whiteSpace=wrap;rounded=0;" vertex="1" parent="1">
          <mxGeometry x="420" y="557" width="30" height="10" as="geometry" />
        </mxCell>
        <mxCell id="FQ1eCsuaFFMa_9nz9Wrn-327" value="&lt;font style=&quot;font-size: 24px;&quot;&gt;*&lt;/font&gt;" style="text;strokeColor=none;align=center;fillColor=none;html=1;verticalAlign=middle;whiteSpace=wrap;rounded=0;" vertex="1" parent="1">
          <mxGeometry x="580" y="557" width="30" height="10" as="geometry" />
        </mxCell>
        <mxCell id="FQ1eCsuaFFMa_9nz9Wrn-328" value="in" style="ellipse;whiteSpace=wrap;html=1;" vertex="1" parent="1">
          <mxGeometry x="710" y="572" width="40" height="35" as="geometry" />
        </mxCell>
        <mxCell id="FQ1eCsuaFFMa_9nz9Wrn-330" value="&lt;b&gt;OCLExpressionCS&lt;/b&gt;" style="rounded=1;whiteSpace=wrap;html=1;" vertex="1" parent="1">
          <mxGeometry x="827" y="570" width="150" height="32" as="geometry" />
        </mxCell>
        <mxCell id="FQ1eCsuaFFMa_9nz9Wrn-340" style="edgeStyle=orthogonalEdgeStyle;rounded=0;orthogonalLoop=1;jettySize=auto;html=1;exitX=0.5;exitY=1;exitDx=0;exitDy=0;entryX=0.5;entryY=0;entryDx=0;entryDy=0;fontSize=18;" edge="1" parent="1" source="FQ1eCsuaFFMa_9nz9Wrn-332" target="FQ1eCsuaFFMa_9nz9Wrn-337">
          <mxGeometry relative="1" as="geometry">
            <Array as="points">
              <mxPoint x="1665" y="520" />
              <mxPoint x="1445" y="520" />
            </Array>
          </mxGeometry>
        </mxCell>
        <mxCell id="FQ1eCsuaFFMa_9nz9Wrn-341" style="edgeStyle=orthogonalEdgeStyle;rounded=0;orthogonalLoop=1;jettySize=auto;html=1;exitX=0.5;exitY=1;exitDx=0;exitDy=0;entryX=0.5;entryY=0;entryDx=0;entryDy=0;fontSize=18;" edge="1" parent="1" source="FQ1eCsuaFFMa_9nz9Wrn-332" target="FQ1eCsuaFFMa_9nz9Wrn-338">
          <mxGeometry relative="1" as="geometry">
            <Array as="points">
              <mxPoint x="1665" y="520" />
              <mxPoint x="1590" y="520" />
            </Array>
          </mxGeometry>
        </mxCell>
        <mxCell id="FQ1eCsuaFFMa_9nz9Wrn-342" style="edgeStyle=orthogonalEdgeStyle;rounded=0;orthogonalLoop=1;jettySize=auto;html=1;exitX=0.5;exitY=1;exitDx=0;exitDy=0;entryX=0.5;entryY=0;entryDx=0;entryDy=0;fontSize=18;" edge="1" parent="1" source="FQ1eCsuaFFMa_9nz9Wrn-332" target="FQ1eCsuaFFMa_9nz9Wrn-339">
          <mxGeometry relative="1" as="geometry">
            <Array as="points">
              <mxPoint x="1590" y="510" />
              <mxPoint x="1590" y="550" />
              <mxPoint x="1665" y="550" />
            </Array>
          </mxGeometry>
        </mxCell>
        <mxCell id="FQ1eCsuaFFMa_9nz9Wrn-348" style="edgeStyle=orthogonalEdgeStyle;rounded=0;orthogonalLoop=1;jettySize=auto;html=1;exitX=0.5;exitY=1;exitDx=0;exitDy=0;entryX=0.5;entryY=0;entryDx=0;entryDy=0;fontSize=18;" edge="1" parent="1" source="FQ1eCsuaFFMa_9nz9Wrn-332" target="FQ1eCsuaFFMa_9nz9Wrn-346">
          <mxGeometry relative="1" as="geometry">
            <Array as="points">
              <mxPoint x="1665" y="520" />
              <mxPoint x="1850" y="520" />
              <mxPoint x="1850" y="540" />
              <mxPoint x="2035" y="540" />
            </Array>
          </mxGeometry>
        </mxCell>
        <mxCell id="FQ1eCsuaFFMa_9nz9Wrn-349" style="edgeStyle=orthogonalEdgeStyle;rounded=0;orthogonalLoop=1;jettySize=auto;html=1;exitX=0.5;exitY=1;exitDx=0;exitDy=0;entryX=0.5;entryY=0;entryDx=0;entryDy=0;fontSize=18;" edge="1" parent="1" source="FQ1eCsuaFFMa_9nz9Wrn-332" target="FQ1eCsuaFFMa_9nz9Wrn-344">
          <mxGeometry relative="1" as="geometry">
            <Array as="points">
              <mxPoint x="1665" y="520" />
              <mxPoint x="1850" y="520" />
              <mxPoint x="1850" y="557" />
            </Array>
          </mxGeometry>
        </mxCell>
        <mxCell id="FQ1eCsuaFFMa_9nz9Wrn-350" style="edgeStyle=orthogonalEdgeStyle;rounded=0;orthogonalLoop=1;jettySize=auto;html=1;exitX=0.5;exitY=1;exitDx=0;exitDy=0;entryX=0.5;entryY=0;entryDx=0;entryDy=0;fontSize=18;" edge="1" parent="1" source="FQ1eCsuaFFMa_9nz9Wrn-332" target="FQ1eCsuaFFMa_9nz9Wrn-347">
          <mxGeometry relative="1" as="geometry">
            <Array as="points">
              <mxPoint x="1665" y="520" />
              <mxPoint x="1850" y="520" />
              <mxPoint x="1850" y="540" />
              <mxPoint x="2225" y="540" />
            </Array>
          </mxGeometry>
        </mxCell>
        <mxCell id="FQ1eCsuaFFMa_9nz9Wrn-332" value="&lt;b&gt;LogicFormulaExpCS&lt;/b&gt;" style="rounded=1;whiteSpace=wrap;html=1;" vertex="1" parent="1">
          <mxGeometry x="1590" y="478" width="150" height="32" as="geometry" />
        </mxCell>
        <mxCell id="FQ1eCsuaFFMa_9nz9Wrn-334" value="" style="line;strokeWidth=4;direction=south;html=1;perimeter=backbonePerimeter;points=[];outlineConnect=0;fontSize=18;" vertex="1" parent="1">
          <mxGeometry x="1150" y="470" width="10" height="180" as="geometry" />
        </mxCell>
        <mxCell id="FQ1eCsuaFFMa_9nz9Wrn-337" value="&lt;b&gt;AtomicExpression&lt;/b&gt;" style="rounded=1;whiteSpace=wrap;html=1;" vertex="1" parent="1">
          <mxGeometry x="1370" y="567" width="150" height="32" as="geometry" />
        </mxCell>
        <mxCell id="FQ1eCsuaFFMa_9nz9Wrn-338" value="and" style="ellipse;whiteSpace=wrap;html=1;" vertex="1" parent="1">
          <mxGeometry x="1570" y="569" width="40" height="30" as="geometry" />
        </mxCell>
        <mxCell id="FQ1eCsuaFFMa_9nz9Wrn-339" value="or" style="ellipse;whiteSpace=wrap;html=1;" vertex="1" parent="1">
          <mxGeometry x="1645" y="569" width="40" height="30" as="geometry" />
        </mxCell>
        <mxCell id="FQ1eCsuaFFMa_9nz9Wrn-343" value="" style="line;strokeWidth=4;direction=south;html=1;perimeter=backbonePerimeter;points=[];outlineConnect=0;fontSize=18;" vertex="1" parent="1">
          <mxGeometry x="1620" y="557" width="10" height="65" as="geometry" />
        </mxCell>
        <mxCell id="FQ1eCsuaFFMa_9nz9Wrn-344" value="&lt;b&gt;AtomicExpression&lt;/b&gt;" style="rounded=1;whiteSpace=wrap;html=1;" vertex="1" parent="1">
          <mxGeometry x="1770" y="557" width="150" height="32" as="geometry" />
        </mxCell>
        <mxCell id="FQ1eCsuaFFMa_9nz9Wrn-346" value="&lt;b&gt;IfExpCS&lt;/b&gt;" style="rounded=1;whiteSpace=wrap;html=1;" vertex="1" parent="1">
          <mxGeometry x="1960" y="557" width="150" height="32" as="geometry" />
        </mxCell>
        <mxCell id="FQ1eCsuaFFMa_9nz9Wrn-347" value="&lt;b&gt;NestedExpCS&lt;/b&gt;" style="rounded=1;whiteSpace=wrap;html=1;" vertex="1" parent="1">
          <mxGeometry x="2150" y="557" width="150" height="32" as="geometry" />
        </mxCell>
      </root>
    </mxGraphModel>
  </diagram>
</mxfile>
